<svg width="38" height="36" viewBox="0 0 38 36" fill="none" xmlns="http://www.w3.org/2000/svg">
<path d="M37.2138 25.9091L31.5206 20.5173C31.0146 20.0369 30.3409 19.7725 29.6242 19.7725C29.6242 19.7725 29.6229 19.7725 29.6216 19.7725C28.9049 19.7725 28.2311 20.0381 27.7252 20.5173L23.9297 24.1119L12.5421 13.327L16.3375 9.73244C17.3844 8.74102 17.3844 7.12679 16.3362 6.13537L10.6417 0.743565C10.1357 0.264379 9.46199 0 8.74531 0H8.74397C8.02595 0 7.35222 0.26565 6.84625 0.746107L1.15175 6.13918C0.978623 6.30187 -0.521836 7.83985 0.190815 11.2196C1.03096 15.1967 4.54725 20.1411 10.6417 25.9129C19.3639 34.1735 24.8652 36.0013 28.0258 36.0013C30.2134 36.0013 31.2817 35.1255 31.5206 34.8993L37.2138 29.5075C37.7211 29.027 38.0016 28.3877 38.0002 27.7077C38.0002 27.0289 37.7211 26.3896 37.2138 25.9091ZM29.6229 33.1007C29.5853 33.1363 25.0477 35.9593 12.5394 24.1144C-0.238654 12.014 3.05484 7.93518 3.04947 7.93645L8.74397 2.5421L14.4385 7.93645L9.69417 12.4296C9.16941 12.9266 9.16941 13.7299 9.69417 14.2269L22.9795 26.809C23.5043 27.306 24.3525 27.306 24.8773 26.809L29.6216 22.3146L35.3161 27.7089L29.6229 33.1007Z" fill="black"/>
</svg>
