<svg width="37" height="36" viewBox="0 0 37 36" fill="none" xmlns="http://www.w3.org/2000/svg">
<path d="M30.2984 23.4015C29.4559 23.4017 28.6221 23.5683 27.8475 23.8913C27.0729 24.2143 26.3736 24.687 25.7918 25.2808L12.8675 18.9831C12.9862 18.333 12.9862 17.6676 12.8675 17.0175L25.7915 10.7196C26.8408 11.7959 28.2519 12.4693 29.7679 12.617C31.2839 12.7648 32.8039 12.3771 34.0512 11.5246C35.2985 10.6721 36.19 9.41145 36.5635 7.97226C36.9371 6.53307 36.7677 5.01104 36.0862 3.68332C35.4048 2.3556 34.2566 1.3105 32.8507 0.738333C31.4449 0.166165 29.8749 0.104985 28.4266 0.565933C26.9784 1.02688 25.7482 1.97929 24.9601 3.24975C24.172 4.5202 23.8784 6.02419 24.1328 7.48785L11.2079 13.7846C10.3443 12.9061 9.23057 12.2995 8.01014 12.043C6.78971 11.7865 5.51842 11.8917 4.35988 12.3451C3.20134 12.7985 2.20858 13.5794 1.50937 14.5872C0.810171 15.595 0.436523 16.7837 0.436523 18.0002C0.436523 19.2167 0.810171 20.4053 1.50937 21.4132C2.20858 22.421 3.20134 23.2019 4.35988 23.6553C5.51842 24.1087 6.78971 24.2139 8.01014 23.9574C9.23057 23.7009 10.3443 23.0943 11.2079 22.2158L24.1328 28.5125C23.927 29.743 24.1137 31.0052 24.6677 32.129C25.2217 33.2527 26.1162 34.1837 27.2306 34.7963C28.3449 35.4089 29.6253 35.6735 30.8989 35.5545C32.1725 35.4355 33.3779 34.9385 34.3524 34.1307C35.3269 33.3229 36.0235 32.2432 36.3482 31.0373C36.6728 29.8315 36.6099 28.5576 36.1678 27.3878C35.7258 26.2179 34.926 25.2084 33.8763 24.4955C32.8267 23.7827 31.5779 23.4008 30.2984 23.4015ZM30.2984 1.44941C31.3245 1.44947 32.3276 1.746 33.1808 2.30151C34.0339 2.85702 34.6989 3.64655 35.0915 4.57027C35.4841 5.49399 35.5868 6.51041 35.3866 7.491C35.1864 8.47159 34.6922 9.37231 33.9666 10.0793C33.241 10.7862 32.3166 11.2676 31.3102 11.4627C30.3038 11.6577 29.2606 11.5576 28.3126 11.175C27.3646 10.7923 26.5543 10.1444 25.9842 9.31308C25.4142 8.48177 25.1099 7.50441 25.1099 6.5046C25.1114 5.16429 25.6586 3.8793 26.6313 2.93159C27.604 1.98387 28.9228 1.45083 30.2984 1.44941ZM24.4018 8.5183C24.5748 9.0036 24.8103 9.46556 25.1026 9.89313L12.5982 15.9868C12.4253 15.5011 12.1898 15.0387 11.8974 14.6108L24.4018 8.5183ZM6.70159 23.0554C5.67547 23.0553 4.67241 22.7588 3.81925 22.2033C2.96609 21.6478 2.30115 20.8582 1.90852 19.9345C1.51588 19.0108 1.41318 17.9944 1.6134 17.0138C1.81362 16.0332 2.30778 15.1325 3.03338 14.4255C3.75897 13.7186 4.68343 13.2372 5.68983 13.0421C6.69624 12.8471 7.7394 12.9472 8.68741 13.3298C9.63541 13.7125 10.4457 14.3604 11.0158 15.1917C11.5858 16.023 11.8901 17.0004 11.8901 18.0002C11.8886 19.3405 11.3414 20.6255 10.3687 21.5732C9.396 22.5209 8.07717 23.054 6.70159 23.0554ZM11.8962 21.3896C12.1886 20.9617 12.424 20.4993 12.597 20.0136L25.1032 26.107C24.8109 26.5345 24.5754 26.9965 24.4024 27.4818L11.8962 21.3896ZM30.2993 34.551C29.2732 34.551 28.2701 34.2546 27.4168 33.6992C26.5636 33.1437 25.8986 32.3542 25.5058 31.4305C25.1131 30.5068 25.0103 29.4904 25.2105 28.5098C25.4106 27.5291 25.9047 26.6283 26.6303 25.9213C27.3559 25.2143 28.2803 24.7328 29.2867 24.5378C30.2932 24.3427 31.3364 24.4428 32.2844 24.8254C33.2324 25.208 34.0427 25.8559 34.6129 26.6872C35.183 27.5186 35.4872 28.496 35.4872 29.4958C35.4857 30.8362 34.9385 32.1212 33.9657 33.0689C32.993 34.0166 31.6741 34.5496 30.2984 34.551H30.2993Z" fill="black"/>
</svg>
